<svg width="232" height="79" viewBox="0 0 232 79" fill="none" xmlns="http://www.w3.org/2000/svg">
<rect width="232" height="79" rx="10.8" fill="black"/>
<path d="M41.6515 38.5306L24.1641 57.5103C24.1657 57.5136 24.1657 57.5187 24.1673 57.522C24.7044 59.5829 26.544 61.0996 28.7285 61.0996C29.6023 61.0996 30.4219 60.8577 31.1249 60.4345L31.1807 60.4009L50.8641 48.7864L41.6515 38.5306Z" fill="#EA4335"/>
<path d="M59.3385 35.2995L59.3221 35.2878L50.824 30.2506L41.25 38.9628L50.8585 48.7852L59.3106 43.7984C60.7921 42.9787 61.799 41.3814 61.799 39.5406C61.799 37.7098 60.8069 36.1209 59.3385 35.2995Z" fill="#FBBC04"/>
<path d="M24.161 21.488C24.0558 21.8844 24 22.301 24 22.731V56.2695C24 56.6995 24.0558 57.116 24.1626 57.5107L42.2495 39.0165L24.161 21.488Z" fill="#4285F4"/>
<path d="M41.7812 39.5L50.8312 30.247L31.1708 18.5905C30.4564 18.1521 29.622 17.9002 28.7301 17.9002C26.5456 17.9002 24.7028 19.4202 24.1657 21.4828C24.1657 21.4845 24.1641 21.4861 24.1641 21.4878L41.7812 39.5Z" fill="#34A853"/>
<path d="M75.8789 27V18.5449H78.7793C79.6152 18.5449 80.3301 18.7129 80.9238 19.0488C81.5215 19.3809 81.9785 19.8613 82.2949 20.4902C82.6113 21.1191 82.7695 21.877 82.7695 22.7637V22.7754C82.7695 23.6621 82.6113 24.4219 82.2949 25.0547C81.9785 25.6836 81.5234 26.166 80.9297 26.502C80.3359 26.834 79.6191 27 78.7793 27H75.8789ZM76.9336 26.0508H78.709C79.3379 26.0508 79.875 25.9219 80.3203 25.6641C80.7656 25.4062 81.1055 25.0332 81.3398 24.5449C81.5742 24.0566 81.6914 23.4707 81.6914 22.7871V22.7754C81.6914 22.0879 81.5723 21.5 81.334 21.0117C81.0996 20.5195 80.7598 20.1445 80.3145 19.8867C79.8691 19.625 79.334 19.4941 78.709 19.4941H76.9336V26.0508ZM87.0645 27.1113C86.4668 27.1113 85.9492 26.9805 85.5117 26.7188C85.0781 26.4531 84.7422 26.0762 84.5039 25.5879C84.2695 25.0996 84.1523 24.5195 84.1523 23.8477V23.8359C84.1523 23.1602 84.2695 22.5781 84.5039 22.0898C84.7422 21.6016 85.0781 21.2266 85.5117 20.9648C85.9492 20.7031 86.4668 20.5723 87.0645 20.5723C87.666 20.5723 88.1836 20.7031 88.6172 20.9648C89.0508 21.2266 89.3848 21.6016 89.6191 22.0898C89.8574 22.5781 89.9766 23.1602 89.9766 23.8359V23.8477C89.9766 24.5195 89.8574 25.0996 89.6191 25.5879C89.3848 26.0762 89.0508 26.4531 88.6172 26.7188C88.1836 26.9805 87.666 27.1113 87.0645 27.1113ZM87.0645 26.209C87.4629 26.209 87.8008 26.1152 88.0781 25.9277C88.3555 25.7402 88.5664 25.4707 88.7109 25.1191C88.8594 24.7676 88.9336 24.3438 88.9336 23.8477V23.8359C88.9336 23.3359 88.8594 22.9102 88.7109 22.5586C88.5664 22.207 88.3555 21.9395 88.0781 21.7559C87.8008 21.5684 87.4629 21.4746 87.0645 21.4746C86.666 21.4746 86.3281 21.5684 86.0508 21.7559C85.7734 21.9395 85.5605 22.207 85.4121 22.5586C85.2676 22.9102 85.1953 23.3359 85.1953 23.8359V23.8477C85.1953 24.3438 85.2676 24.7676 85.4121 25.1191C85.5605 25.4707 85.7734 25.7402 86.0508 25.9277C86.3281 26.1152 86.666 26.209 87.0645 26.209ZM92.543 27L90.7734 20.6836H91.793L93.0352 25.7344H93.1289L94.541 20.6836H95.5078L96.9199 25.7344H97.0137L98.2559 20.6836H99.2695L97.5 27H96.4746L95.0625 22.1133H94.9688L93.5625 27H92.543ZM100.617 27V20.6836H101.637V21.6328H101.73C101.891 21.2969 102.121 21.0371 102.422 20.8535C102.723 20.666 103.105 20.5723 103.57 20.5723C104.281 20.5723 104.826 20.7754 105.205 21.1816C105.588 21.584 105.779 22.1602 105.779 22.9102V27H104.76V23.1562C104.76 22.5859 104.639 22.1641 104.396 21.8906C104.158 21.6133 103.787 21.4746 103.283 21.4746C102.947 21.4746 102.656 21.5469 102.41 21.6914C102.164 21.8359 101.973 22.041 101.836 22.3066C101.703 22.5723 101.637 22.8906 101.637 23.2617V27H100.617ZM107.684 27V18.1758H108.703V27H107.684ZM113.256 27.1113C112.658 27.1113 112.141 26.9805 111.703 26.7188C111.27 26.4531 110.934 26.0762 110.695 25.5879C110.461 25.0996 110.344 24.5195 110.344 23.8477V23.8359C110.344 23.1602 110.461 22.5781 110.695 22.0898C110.934 21.6016 111.27 21.2266 111.703 20.9648C112.141 20.7031 112.658 20.5723 113.256 20.5723C113.857 20.5723 114.375 20.7031 114.809 20.9648C115.242 21.2266 115.576 21.6016 115.811 22.0898C116.049 22.5781 116.168 23.1602 116.168 23.8359V23.8477C116.168 24.5195 116.049 25.0996 115.811 25.5879C115.576 26.0762 115.242 26.4531 114.809 26.7188C114.375 26.9805 113.857 27.1113 113.256 27.1113ZM113.256 26.209C113.654 26.209 113.992 26.1152 114.27 25.9277C114.547 25.7402 114.758 25.4707 114.902 25.1191C115.051 24.7676 115.125 24.3438 115.125 23.8477V23.8359C115.125 23.3359 115.051 22.9102 114.902 22.5586C114.758 22.207 114.547 21.9395 114.27 21.7559C113.992 21.5684 113.654 21.4746 113.256 21.4746C112.857 21.4746 112.52 21.5684 112.242 21.7559C111.965 21.9395 111.752 22.207 111.604 22.5586C111.459 22.9102 111.387 23.3359 111.387 23.8359V23.8477C111.387 24.3438 111.459 24.7676 111.604 25.1191C111.752 25.4707 111.965 25.7402 112.242 25.9277C112.52 26.1152 112.857 26.209 113.256 26.209ZM119.484 27.1113C119.086 27.1113 118.727 27.0352 118.406 26.8828C118.09 26.7305 117.838 26.5137 117.65 26.2324C117.467 25.9512 117.375 25.6191 117.375 25.2363V25.2246C117.375 24.8496 117.465 24.5293 117.645 24.2637C117.824 23.9941 118.086 23.7832 118.43 23.6309C118.773 23.4785 119.189 23.3887 119.678 23.3613L121.998 23.2207V24.0352L119.801 24.1758C119.32 24.2031 118.969 24.3027 118.746 24.4746C118.527 24.6465 118.418 24.8887 118.418 25.2012V25.2129C118.418 25.5332 118.539 25.7832 118.781 25.9629C119.023 26.1387 119.328 26.2266 119.695 26.2266C120.043 26.2266 120.352 26.1582 120.621 26.0215C120.891 25.8809 121.102 25.6914 121.254 25.4531C121.41 25.2148 121.488 24.9453 121.488 24.6445V22.6758C121.488 22.2852 121.369 21.9883 121.131 21.7852C120.896 21.5781 120.543 21.4746 120.07 21.4746C119.691 21.4746 119.381 21.543 119.139 21.6797C118.896 21.8125 118.734 22.002 118.652 22.248L118.646 22.2656H117.627L117.633 22.2305C117.688 21.8984 117.824 21.6094 118.043 21.3633C118.266 21.1133 118.553 20.9199 118.904 20.7832C119.256 20.6426 119.656 20.5723 120.105 20.5723C120.621 20.5723 121.057 20.6562 121.412 20.8242C121.771 20.9922 122.043 21.2344 122.227 21.5508C122.414 21.8633 122.508 22.2383 122.508 22.6758V27H121.488V26.0684H121.395C121.262 26.291 121.1 26.4805 120.908 26.6367C120.721 26.793 120.508 26.9121 120.27 26.9941C120.031 27.0723 119.77 27.1113 119.484 27.1113ZM126.703 27.1113C126.172 27.1113 125.707 26.9766 125.309 26.707C124.91 26.4375 124.602 26.0586 124.383 25.5703C124.164 25.0781 124.055 24.5039 124.055 23.8477V23.8359C124.055 23.1758 124.164 22.6016 124.383 22.1133C124.602 21.625 124.908 21.2461 125.303 20.9766C125.701 20.707 126.168 20.5723 126.703 20.5723C126.992 20.5723 127.264 20.6191 127.518 20.7129C127.775 20.8027 128.004 20.9297 128.203 21.0938C128.402 21.2578 128.559 21.4531 128.672 21.6797H128.766V18.1758H129.785V27H128.766V25.9922H128.672C128.543 26.2266 128.381 26.4277 128.186 26.5957C127.99 26.7598 127.768 26.8867 127.518 26.9766C127.268 27.0664 126.996 27.1113 126.703 27.1113ZM126.938 26.209C127.32 26.209 127.65 26.1133 127.928 25.9219C128.205 25.7305 128.418 25.459 128.566 25.1074C128.715 24.752 128.789 24.332 128.789 23.8477V23.8359C128.789 23.3477 128.715 22.9277 128.566 22.5762C128.418 22.2246 128.205 21.9531 127.928 21.7617C127.65 21.5703 127.32 21.4746 126.938 21.4746C126.555 21.4746 126.225 21.5703 125.947 21.7617C125.674 21.9492 125.463 22.2188 125.314 22.5703C125.17 22.9219 125.098 23.3438 125.098 23.8359V23.8477C125.098 24.3359 125.17 24.7578 125.314 25.1133C125.463 25.4648 125.674 25.7363 125.947 25.9277C126.225 26.1152 126.555 26.209 126.938 26.209ZM137.713 27.1113C137.115 27.1113 136.598 26.9805 136.16 26.7188C135.727 26.4531 135.391 26.0762 135.152 25.5879C134.918 25.0996 134.801 24.5195 134.801 23.8477V23.8359C134.801 23.1602 134.918 22.5781 135.152 22.0898C135.391 21.6016 135.727 21.2266 136.16 20.9648C136.598 20.7031 137.115 20.5723 137.713 20.5723C138.314 20.5723 138.832 20.7031 139.266 20.9648C139.699 21.2266 140.033 21.6016 140.268 22.0898C140.506 22.5781 140.625 23.1602 140.625 23.8359V23.8477C140.625 24.5195 140.506 25.0996 140.268 25.5879C140.033 26.0762 139.699 26.4531 139.266 26.7188C138.832 26.9805 138.314 27.1113 137.713 27.1113ZM137.713 26.209C138.111 26.209 138.449 26.1152 138.727 25.9277C139.004 25.7402 139.215 25.4707 139.359 25.1191C139.508 24.7676 139.582 24.3438 139.582 23.8477V23.8359C139.582 23.3359 139.508 22.9102 139.359 22.5586C139.215 22.207 139.004 21.9395 138.727 21.7559C138.449 21.5684 138.111 21.4746 137.713 21.4746C137.314 21.4746 136.977 21.5684 136.699 21.7559C136.422 21.9395 136.209 22.207 136.061 22.5586C135.916 22.9102 135.844 23.3359 135.844 23.8359V23.8477C135.844 24.3438 135.916 24.7676 136.061 25.1191C136.209 25.4707 136.422 25.7402 136.699 25.9277C136.977 26.1152 137.314 26.209 137.713 26.209ZM142.207 27V20.6836H143.227V21.6328H143.32C143.48 21.2969 143.711 21.0371 144.012 20.8535C144.312 20.666 144.695 20.5723 145.16 20.5723C145.871 20.5723 146.416 20.7754 146.795 21.1816C147.178 21.584 147.369 22.1602 147.369 22.9102V27H146.35V23.1562C146.35 22.5859 146.229 22.1641 145.986 21.8906C145.748 21.6133 145.377 21.4746 144.873 21.4746C144.537 21.4746 144.246 21.5469 144 21.6914C143.754 21.8359 143.562 22.041 143.426 22.3066C143.293 22.5723 143.227 22.8906 143.227 23.2617V27H142.207Z" fill="white"/>
<path d="M178.333 56.5374H181.265V36.7167H178.333V56.5374ZM204.741 43.8563L201.38 52.4499H201.279L197.791 43.8563H194.633L199.864 55.8667L196.883 62.5481H199.939L208.001 43.8563H204.741ZM188.114 54.2859C187.153 54.2859 185.814 53.8023 185.814 52.6021C185.814 51.0736 187.481 50.487 188.922 50.487C190.21 50.487 190.818 50.7676 191.601 51.1497C191.373 52.9858 189.806 54.2859 188.114 54.2859ZM188.468 43.4235C186.345 43.4235 184.145 44.3668 183.237 46.4582L185.839 47.5538C186.395 46.4582 187.431 46.0998 188.518 46.0998C190.034 46.0998 191.575 47.0178 191.601 48.6509V48.8539C191.07 48.5479 189.934 48.0897 188.543 48.0897C185.738 48.0897 182.882 49.6451 182.882 52.5514C182.882 55.2039 185.182 56.9131 187.759 56.9131C189.731 56.9131 190.818 56.0205 191.5 54.974H191.601V56.5041H194.43V48.9046C194.43 45.3863 191.828 43.4235 188.468 43.4235M170.349 46.2695H166.179V39.4755H170.349C172.54 39.4755 173.785 41.3068 173.785 42.8717C173.785 44.4081 172.54 46.2695 170.349 46.2695ZM170.273 36.7167H163.248V56.5374H166.179V49.0283H170.273C173.522 49.0283 176.717 46.6532 176.717 42.8717C176.717 39.0902 173.522 36.7167 170.273 36.7167M131.966 54.2891C129.94 54.2891 128.245 52.5783 128.245 50.2286C128.245 47.8534 129.94 46.1157 131.966 46.1157C133.966 46.1157 135.534 47.8534 135.534 50.2286C135.534 52.5783 133.966 54.2891 131.966 54.2891ZM135.333 44.9662H135.231C134.572 44.175 133.308 43.4599 131.713 43.4599C128.371 43.4599 125.309 46.4217 125.309 50.2286C125.309 54.0085 128.371 56.9464 131.713 56.9464C133.308 56.9464 134.572 56.2314 135.231 55.4132H135.333V56.3852C135.333 58.9648 133.966 60.3442 131.763 60.3442C129.966 60.3442 128.852 59.0409 128.396 57.9422L125.84 59.0156C126.573 60.804 128.523 63 131.763 63C135.206 63 138.117 60.9563 138.117 55.9761V43.8674H135.333V44.9662ZM140.142 56.5374H143.079V36.7151H140.142V56.5374ZM147.406 49.9986C147.33 47.3936 149.406 46.0649 150.899 46.0649C152.065 46.0649 153.051 46.6516 153.38 47.4951L147.406 49.9986ZM156.519 47.7504C155.963 46.2441 154.266 43.4599 150.798 43.4599C147.356 43.4599 144.496 46.1918 144.496 50.2032C144.496 53.9831 147.33 56.9464 151.127 56.9464C154.19 56.9464 155.963 55.0565 156.696 53.9577L154.418 52.4245C153.659 53.5487 152.621 54.2891 151.127 54.2891C149.634 54.2891 148.57 53.5994 147.887 52.2469L156.822 48.5162L156.519 47.7504ZM85.331 45.529V48.3893H92.1138C91.9111 49.9986 91.3801 51.1735 90.5709 51.9901C89.5826 52.9874 88.0381 54.0861 85.331 54.0861C81.1531 54.0861 77.8882 50.6884 77.8882 46.474C77.8882 42.2581 81.1531 38.8619 85.331 38.8619C87.5841 38.8619 89.2291 39.7561 90.4436 40.9056L92.4438 38.8872C90.7469 37.2526 88.4954 36 85.331 36C79.6102 36 74.8008 40.7011 74.8008 46.474C74.8008 52.2469 79.6102 56.9464 85.331 56.9464C88.4184 56.9464 90.7469 55.9238 92.5695 54.0085C94.4439 52.1185 95.0253 49.4627 95.0253 47.3159C95.0253 46.6516 94.975 46.0396 94.8729 45.529H85.331ZM102.738 54.2891C100.713 54.2891 98.9658 52.6037 98.9658 50.2032C98.9658 47.7757 100.713 46.1157 102.738 46.1157C104.762 46.1157 106.509 47.7757 106.509 50.2032C106.509 52.6037 104.762 54.2891 102.738 54.2891ZM102.738 43.4599C99.0412 43.4599 96.0293 46.2948 96.0293 50.2032C96.0293 54.0861 99.0412 56.9464 102.738 56.9464C106.434 56.9464 109.446 54.0861 109.446 50.2032C109.446 46.2948 106.434 43.4599 102.738 43.4599ZM117.371 54.2891C115.346 54.2891 113.598 52.6037 113.598 50.2032C113.598 47.7757 115.346 46.1157 117.371 46.1157C119.396 46.1157 121.142 47.7757 121.142 50.2032C121.142 52.6037 119.396 54.2891 117.371 54.2891ZM117.371 43.4599C113.675 43.4599 110.663 46.2948 110.663 50.2032C110.663 54.0861 113.675 56.9464 117.371 56.9464C121.066 56.9464 124.078 54.0861 124.078 50.2032C124.078 46.2948 121.066 43.4599 117.371 43.4599Z" fill="white"/>
</svg>
